# xmcd
# Copyright (C) 1995-1998 Ti Kan
#
# Track frame offsets:
#       150
#       16563
#       33297
#       45954
#       65593
#       78678
#       91598
#       105790
#       119851
#       134380
#       152014
#       157418
#
# Disc length: 2340 seconds
#
# Revision: 0
# Processed by: cddbd v1.5.2PL0 Copyright (c) Steve Scherf et al.
# Submitted via: CD-Import v1.0
#
DISCID=8d09220c
DTITLE=Coldeve - Super Himalaya
DYEAR=2008
DGENRE=
TTITLE0=Breaking It Down
TTITLE1=In The Woods
TTITLE2=Dance With Me
TTITLE3=Innocent
TTITLE4=Don't Stop
TTITLE5=Shakal
TTITLE6=Let It All Out On Me
TTITLE7=Could You Stop The Rain?
TTITLE8=They Want Super Man
TTITLE9=We Should Be There
TTITLE10=Technofox
TTITLE11=Mad World 
EXTD=
EXTT0=
EXTT1=
EXTT2=
EXTT3=
EXTT4=
EXTT5=
EXTT6=
EXTT7=
EXTT8=
EXTT9=
EXTT10=
EXTT11=
PLAYORDER=
